<svg width="1366" height="768" viewBox="0 0 1366 768" fill="none" xmlns="http://www.w3.org/2000/svg">
  <defs>
    <linearGradient id="bg" x1="1366" y1="384" x2="0" y2="384" gradientUnits="userSpaceOnUse">
      <stop stop-color="#FBBF24" stop-opacity="0.75"/>
      <stop offset="0.55" stop-color="#FCD34D" stop-opacity="0.22"/>
      <stop offset="1" stop-color="#FFFBEB"/>
    </linearGradient>
    <radialGradient id="glow" cx="0" cy="0" r="1" gradientUnits="userSpaceOnUse" gradientTransform="translate(1366 384) rotate(180) scale(560 420)">
      <stop stop-color="#F59E0B" stop-opacity="0.6"/>
      <stop offset="1" stop-color="#F59E0B" stop-opacity="0"/>
    </radialGradient>
    <linearGradient id="cube" x1="0" y1="0" x2="1" y2="1">
      <stop stop-color="#0F172A"/>
      <stop offset="1" stop-color="#312E81"/>
    </linearGradient>
  </defs>

  <rect width="1366" height="768" fill="url(#bg)"/>
  <rect width="1366" height="768" fill="url(#glow)"/>

  <rect x="220" y="80" width="926" height="52" rx="14" fill="#1F29370F" stroke="#1118271F"/>
  <circle cx="252" cy="106" r="16" fill="#111827"/>
  <text x="280" y="112" fill="#111827" font-family="Arial, Helvetica, sans-serif" font-size="30" font-weight="700">Rubix Cube 3D Portfolio</text>

  <text x="220" y="285" fill="#111827" font-family="Arial, Helvetica, sans-serif" font-size="50" font-weight="700">Hi, I am</text>
  <text x="220" y="380" fill="#0B0B0B" font-family="Arial Black, Arial, Helvetica, sans-serif" font-size="92" font-weight="900">ZWINGLI</text>
  <text x="220" y="470" fill="#0B0B0B" font-family="Arial Black, Arial, Helvetica, sans-serif" font-size="92" font-weight="900">SAVANAROLA</text>
  <text x="220" y="530" fill="#1F2937" font-family="Arial, Helvetica, sans-serif" font-size="46" font-weight="600">A Full Stack Web Developer</text>

  <rect x="220" y="575" width="170" height="56" rx="12" fill="#111827"/>
  <text x="266" y="612" fill="#FCD34D" font-family="Arial, Helvetica, sans-serif" font-size="28" font-weight="700">Resume</text>

  <rect x="700" y="158" width="450" height="520" rx="18" fill="#11182714" stroke="#11182726"/>

  <g transform="translate(820 250)">
    <rect x="0" y="0" width="90" height="90" rx="8" fill="url(#cube)"/>
    <rect x="95" y="0" width="90" height="90" rx="8" fill="url(#cube)"/>
    <rect x="190" y="0" width="90" height="90" rx="8" fill="url(#cube)"/>
    <rect x="0" y="95" width="90" height="90" rx="8" fill="url(#cube)"/>
    <rect x="95" y="95" width="90" height="90" rx="8" fill="url(#cube)"/>
    <rect x="190" y="95" width="90" height="90" rx="8" fill="url(#cube)"/>
    <rect x="0" y="190" width="90" height="90" rx="8" fill="url(#cube)"/>
    <rect x="95" y="190" width="90" height="90" rx="8" fill="url(#cube)"/>
    <rect x="190" y="190" width="90" height="90" rx="8" fill="url(#cube)"/>
  </g>
</svg>
